#!OML:ASF I:\Actors\actors\Patient Classification 2\Patient 1\Session 1\actor1.ASF
:FULLY-SPECIFIED
:DEGREES
619
root -0.754614 18.7395 5.36669 2.83419 -1.24893 -1.3859
lowerback 5.16412 0.918269 -0.846345
upperback 0.731948 1.19711 0.925305
thorax -2.17883 0.606587 1.34234
lowerneck -14.1506 -3.24612 -4.02341
upperneck 22.458 -4.48447 3.77666
head 9.61161 -2.00657 1.4252
rclavicle 1.22998e-015 7.00716e-015
rhumerus -10.6694 26.9069 -87.695
rradius 66.0735
rwrist 27.3371
rhand -12.4313 -32.9109
rfingers 7.12502
rthumb 13.6414 297.556
lclavicle 1.22998e-015 7.00716e-015
lhumerus -4.44797 -38.1054 88.5196
lradius 61.5037
lwrist 1.49848
lhand -12.099 -26.2537
lfingers 7.12502
lthumb 13.9616 3.25748
rfemur 0 0 0
rtibia 0
rfoot 0 0
rtoes 0
lfemur -6.44622 -7.1851 -12.5756
ltibia 21.1826
lfoot -22.2042 16.9096
ltoes -55.0453
620
root -0.748643 18.7344 5.39686 2.79433 -1.38602 -1.45463
lowerback 4.75449 0.921437 -0.669493
upperback 0.457215 1.21374 0.921118
thorax -2.22882 0.6151 1.24158
lowerneck -13.8787 -3.27751 -4.12834
upperneck 22.5015 -4.53662 3.861
head 9.58267 -2.03421 1.46904
rclavicle -1.63997e-014 6.4605e-016
rhumerus -12.3119 26.995 -88.0285
rradius 66.9153
rwrist 26.9884
rhand -11.3025 -33.5205
rfingers 7.12502
rthumb 14.7291 297.023
lclavicle -1.63997e-014 6.4605e-016
lhumerus -5.8947 -39.207 88.3225
lradius 61.9922
lwrist 1.15665
lhand -10.5401 -25.7957
lfingers 7.12502
lthumb 15.4635 3.60583
rfemur 0 0 0
rtibia 0
rfoot 0 0
rtoes 0
lfemur -6.24597 -7.19349 -12.5619
ltibia 21.1757
lfoot -22.4258 16.9306
ltoes -54.9559
621
root -0.74376 18.7307 5.42178 2.79175 -1.45886 -1.53807
lowerback 4.399 0.918765 -0.465783
upperback 0.176781 1.22298 0.925581
thorax -2.31403 0.619368 1.13439
lowerneck -13.6787 -3.32686 -4.21923
upperneck 22.6026 -4.58601 3.81924
head 9.58411 -2.07209 1.46639
rclavicle -8.68441e-015 2.98177e-015
rhumerus -14.0036 27.0054 -88.4012
rradius 67.6331
rwrist 26.6945
rhand -10.8054 -33.3817
rfingers 7.12502
rthumb 15.208 297.197
lclavicle -8.68441e-015 2.98177e-015
lhumerus -7.56445 -40.2447 88.3569
lradius 62.5452
lwrist 0.968673
lhand -9.11499 -25.6359
lfingers 7.12502
lthumb 16.8357 3.65429
rfemur 0 0 0
rtibia 0
rfoot 0 0
rtoes 0
lfemur -6.13073 -7.17662 -12.5198
ltibia 21.177
lfoot -22.5606 16.8765
ltoes -54.8751
622
root -0.744489 18.7245 5.44165 2.53242 -1.43295 -1.52872
lowerback 4.36237 0.861717 -0.441531
upperback -0.0228142 1.14952 0.926637
thorax -2.49654 0.583918 1.12545
lowerneck -13.5726 -3.32985 -4.34459
upperneck 22.7873 -4.5834 3.86323
head 9.63336 -2.07778 1.50492
rclavicle 1.95679e-016 5.91384e-015
rhumerus -15.794 27.0209 -88.8285
rradius 68.2652
rwrist 26.6734
rhand -12.6257 -32.689
rfingers 7.12502
rthumb 13.454 297.766
lclavicle 1.95679e-016 5.91384e-015
lhumerus -9.48944 -41.0767 88.5715
lradius 63.0844
lwrist 0.831749
lhand -8.04637 -25.8848
lfingers 7.12502
lthumb 17.8642 3.31472
rfemur 0 0 0
rtibia 0
rfoot 0 0
rtoes 0
lfemur -5.78751 -7.18908 -12.5791
ltibia 21.2002
lfoot -22.6535 16.7992
ltoes -54.926
623
root -0.748019 18.7134 5.4687 1.9488 -1.22544 -1.53365
lowerback 4.51681 0.729396 -0.42422
upperback -0.0806262 0.974648 0.933712
thorax -2.63841 0.497263 1.13212
lowerneck -13.3723 -3.29123 -4.40605
upperneck 22.8147 -4.54589 3.94777
head 9.6069 -2.05945 1.55207
rclavicle -1.04145e-014 5.06901e-015
rhumerus -17.6546 27.0556 -89.298
rradius 68.7973
rwrist 26.9093
rhand -10.6649 -31.4692
rfingers 7.12502
rthumb 15.3433 299.12
lclavicle -1.04145e-014 5.06901e-015
lhumerus -11.5954 -41.7653 88.9124
lradius 63.5436
lwrist 0.69901
lhand -7.24191 -26.3514
lfingers 7.12502
lthumb 18.6381 2.77572
rfemur 0 0 0
rtibia 0
rfoot 0 0
rtoes 0
lfemur -5.08899 -7.29545 -12.6254
ltibia 21.2072
lfoot -22.7141 16.6038
ltoes -54.9602
624
root -0.746548 18.7082 5.49489 1.81939 -1.21064 -1.53817
lowerback 4.21528 0.667443 -0.338784
upperback -0.241744 0.896769 0.912065
thorax -2.63142 0.457786 1.06961
lowerneck -13.0889 -3.2799 -4.39883
upperneck 22.7527 -4.538 3.93189
head 9.53046 -2.06157 1.54982
rclavicle 2.93518e-015 8.10048e-015
rhumerus -19.6065 27.0476 -89.8128
rradius 69.2288
rwrist 27.1706
rhand -8.8869 -30.4605
rfingers 7.12502
rthumb 17.0553 300.268
lclavicle 2.93518e-015 8.10048e-015
lhumerus -13.8313 -42.3327 89.4266
lradius 63.9607
lwrist 0.613618
lhand -6.31256 -26.5662
lfingers 7.12502
lthumb 19.5319 2.47272
rfemur 0 0 0
rtibia 0
rfoot 0 0
rtoes 0
lfemur -4.84747 -7.33387 -12.6541
ltibia 21.1871
lfoot -22.7652 16.57
ltoes -54.9136
625
root -0.745436 18.703 5.52038 1.71491 -1.22893 -1.48893
lowerback 3.88187 0.623809 -0.345342
upperback -0.377452 0.838739 0.909325
thorax -2.58257 0.429326 1.07697
lowerneck -12.8727 -3.28453 -4.3785
upperneck 22.7222 -4.52348 3.79238
head 9.47438 -2.07182 1.50264
rclavicle 2.05928e-015 -1.04362e-014
rhumerus -21.628 27.0092 -90.3053
rradius 69.6765
rwrist 27.169
rhand -8.51925 -30.3676
rfingers 7.12502
rthumb 17.4092 300.392
lclavicle 2.05928e-015 -1.04362e-014
lhumerus -16.1579 -42.6482 90.1378
lradius 64.3521
lwrist 0.497883
lhand -5.26412 -26.5471
lfingers 7.12502
lthumb 20.5396 2.38633
rfemur 0 0 0
rtibia 0
rfoot 0 0
rtoes 0
lfemur -4.63191 -7.24986 -12.7332
ltibia 21.1682
lfoot -22.7688 16.5228
ltoes -54.944
626
root -0.74566 18.6978 5.54732 1.60268 -1.29019 -1.43612
lowerback 3.53975 0.576667 -0.405197
upperback -0.500332 0.774264 0.933181
thorax -2.51649 0.398486 1.14168
lowerneck -12.6595 -3.25178 -4.34885
upperneck 22.678 -4.45655 3.64597
head 9.41136 -2.05749 1.458
rclavicle 8.8133e-015 -8.15017e-015
rhumerus -23.6582 26.9747 -90.8065
rradius 70.038
rwrist 26.9751
rhand -8.31548 -30.6538
rfingers 7.12502
rthumb 17.6053 300.123
lclavicle 8.8133e-015 -8.15017e-015
lhumerus -18.652 -42.5529 91.053
lradius 64.6919
lwrist 0.330495
lhand -3.96462 -26.5311
lfingers 7.12502
lthumb 21.7879 2.26248
rfemur 0 0 0
rtibia 0
rfoot 0 0
rtoes 0
lfemur -4.39515 -7.23066 -12.8275
ltibia 21.1694
lfoot -22.8467 16.5622
ltoes -54.9978
627
root -0.745728 18.6943 5.57493 1.51469 -1.48085 -1.4551
lowerback 3.19214 0.55939 -0.36658
upperback -0.630757 0.753849 0.951018
thorax -2.4545 0.388206 1.14212
lowerneck -12.402 -3.20173 -4.34641
upperneck 22.6161 -4.39142 3.62563
head 9.33764 -2.03318 1.46176
rclavicle -1.94281e-015 1.78409e-014
rhumerus -25.6908 26.7509 -91.4047
rradius 70.1102
rwrist 26.9263
rhand -8.46295 -30.4105
rfingers 7.12502
rthumb 17.4633 300.354
lclavicle -1.94281e-015 1.78409e-014
lhumerus -21.253 -42.0997 92.1063
lradius 64.9225
lwrist 0.233977
lhand -2.38757 -26.3723
lfingers 7.12502
lthumb 23.3016 2.23753
rfemur 0 0 0
rtibia 0
rfoot 0 0
rtoes 0
lfemur -4.14317 -7.25028 -12.8615
ltibia 21.1662
lfoot -23.0252 16.6987
ltoes -55.0469
628
root -0.744708 18.6921 5.60136 1.52107 -1.76869 -1.49304
lowerback 2.81541 0.579975 -0.266756
upperback -0.783934 0.785443 0.943989
thorax -2.39945 0.402875 1.08017
lowerneck -12.1992 -3.16881 -4.36111
upperneck 22.6209 -4.36003 3.66016
head 9.30077 -2.01918 1.48257
rclavicle -6.50864e-015 -2.68359e-015
rhumerus -27.6973 26.2423 -92.0473
rradius 69.9169
rwrist 26.8834
rhand -8.30456 -29.6868
rfingers 7.12502
rthumb 17.6158 301.091
lclavicle -6.50864e-015 -2.68359e-015
lhumerus -23.8516 -41.5059 93.1928
lradius 65.0324
lwrist 0.288852
lhand -0.988618 -25.9292
lfingers 7.12502
lthumb 24.6431 2.50422
rfemur 0 0 0
rtibia 0
rfoot 0 0
rtoes 0
lfemur -3.97414 -7.14242 -12.8676
ltibia 21.1542
lfoot -23.1849 16.8533
ltoes -55.1479
629
root -0.743807 18.6899 5.62419 1.56304 -2.07648 -1.48332
lowerback 2.50067 0.607879 -0.214505
upperback -0.962249 0.8243 0.912426
thorax -2.40536 0.421857 1.01891
lowerneck -12.0371 -3.13537 -4.30311
upperneck 22.6968 -4.33106 3.63748
head 9.29342 -2.00555 1.47079
rclavicle -1.80304e-015 -5.31749e-015
rhumerus -29.6096 25.6019 -92.6955
rradius 69.5299
rwrist 26.4563
rhand -7.85673 -29.3955
rfingers 7.12502
rthumb 18.0467 301.422
lclavicle -1.80304e-015 -5.31749e-015
lhumerus -26.4072 -40.8268 94.2694
lradius 64.9873
lwrist 0.549731
lhand -0.000373358 -25.4526
lfingers 7.12502
lthumb 25.59 2.84821
rfemur 0 0 0
rtibia 0
rfoot 0 0
rtoes 0
lfemur -3.8535 -6.94635 -12.9211
ltibia 21.1343
lfoot -23.2649 16.978
ltoes -55.2654
630
root -0.744129 18.6874 5.64528 1.58363 -2.42008 -1.44455
lowerback 2.20432 0.659717 -0.222348
upperback -1.11109 0.892874 0.886795
thorax -2.39273 0.456452 0.996401
lowerneck -11.8823 -3.10564 -4.28514
upperneck 22.7586 -4.30895 3.66249
head 9.28485 -1.99328 1.48118
rclavicle -8.81369e-015 4.42296e-015
rhumerus -31.4347 24.8373 -93.2528
rradius 69.0149
rwrist 25.8931
rhand -7.28983 -29.5612
rfingers 7.12502
rthumb 18.5921 301.307
lclavicle -8.81369e-015 4.42296e-015
lhumerus -28.8328 -40.0216 95.3456
lradius 64.7669
lwrist 1.00644
lhand 0.60151 -25.0611
lfingers 7.12502
lthumb 26.1664 3.15562
rfemur 0 0 0
rtibia 0
rfoot 0 0
rtoes 0
lfemur -3.70329 -6.7428 -13.0113
ltibia 21.0978
lfoot -23.3614 17.0743
ltoes -55.2694
631
root -0.744763 18.6848 5.66551 1.56678 -2.6623 -1.42961
lowerback 1.93981 0.690819 -0.246184
upperback -1.22376 0.934144 0.904387
thorax -2.36125 0.477885 1.02858
lowerneck -11.7578 -3.08411 -4.38483
upperneck 22.7956 -4.29266 3.77924
head 9.27851 -1.98359 1.54174
rclavicle -1.1672e-014 -7.70291e-015
rhumerus -33.2234 23.9332 -93.6523
rradius 68.4335
rwrist 25.3811
rhand -6.47133 -29.6212
rfingers 7.12502
rthumb 19.3792 301.325
lclavicle -1.1672e-014 -7.70291e-015
lhumerus -31.1277 -38.9912 96.4271
lradius 64.4282
lwrist 1.5403
lhand 0.983398 -24.6778
lfingers 7.12502
lthumb 26.532 3.48417
rfemur 0 0 0
rtibia 0
rfoot 0 0
rtoes 0
lfemur -3.50606 -6.74548 -13.0629
ltibia 21.0463
lfoot -23.6958 17.0334
ltoes -54.82
632
root -0.742764 18.6815 5.68548 1.44737 -2.63025 -1.41629
lowerback 1.81709 0.633962 -0.237047
upperback -1.30572 0.859213 0.923212
thorax -2.37512 0.440804 1.04668
lowerneck -11.7077 -3.06272 -4.42842
upperneck 22.8855 -4.27384 3.83834
head 9.30184 -1.97295 1.57257
rclavicle 6.09593e-015 -8.99501e-015
rhumerus -34.9148 22.8819 -93.9742
rradius 67.7204
rwrist 24.7797
rhand -5.5906 -29.636
rfingers 7.12502
rthumb 20.2259 301.397
lclavicle 6.09593e-015 -8.99501e-015
lhumerus -33.2878 -37.6838 97.4404
lradius 63.9681
lwrist 2.05145
lhand 1.144 -24.3786
lfingers 7.12502
lthumb 26.6857 3.76006
rfemur 0 0 0
rtibia 0
rfoot 0 0
rtoes 0
lfemur -3.22845 -7.06519 -13.1048
ltibia 20.9918
lfoot -24.1927 16.8233
ltoes -54.7328
633
root -0.738487 18.6774 5.70641 1.31262 -2.58808 -1.39143
lowerback 1.74063 0.572135 -0.189433
upperback -1.38058 0.777955 0.904617
thorax -2.40646 0.399591 1.00446
lowerneck -11.7306 -3.04194 -4.35981
upperneck 23.0604 -4.2606 3.81532
head 9.36444 -1.96286 1.55499
rclavicle 3.74663e-015 6.31141e-015
rhumerus -36.5041 21.6642 -94.2537
rradius 66.8602
rwrist 24.2058
rhand -4.8196 -29.6972
rfingers 7.12502
rthumb 20.9667 301.416
lclavicle 3.74663e-015 6.31141e-015
lhumerus -35.317 -36.1187 98.2909
lradius 63.4089
lwrist 2.37551
lhand 1.05251 -24.3103
lfingers 7.12502
lthumb 26.5981 3.84166
rfemur 0 0 0
rtibia 0
rfoot 0 0
rtoes 0
lfemur -2.95562 -7.27153 -13.1744
ltibia 20.9396
lfoot -24.4572 16.7495
ltoes -54.622
634
root -0.73565 18.6754 5.72358 1.37339 -2.91181 -1.38137
lowerback 1.54435 0.617287 -0.175448
upperback -1.51083 0.838449 0.885269
thorax -2.43059 0.429817 0.975865
lowerneck -11.7318 -3.00306 -4.27057
upperneck 23.1942 -4.22965 3.80747
head 9.40763 -1.94151 1.54139
rclavicle -4.91759e-015 3.47873e-015
rhumerus -38.0142 20.2886 -94.4348
rradius 65.8863
rwrist 23.9153
rhand -4.17556 -29.5123
rfingers 7.12502
rthumb 21.5854 301.671
lclavicle -4.91759e-015 3.47873e-015
lhumerus -37.216 -34.2771 98.9324
lradius 62.8105
lwrist 2.41858
lhand 0.717533 -24.3795
lfingers 7.12502
lthumb 26.2775 3.82069
rfemur 0 0 0
rtibia 0
rfoot 0 0
rtoes 0
lfemur -2.85219 -7.14896 -13.2415
ltibia 20.8837
lfoot -24.6224 16.9289
ltoes -54.6619
